<svg viewBox="0 0 720 560" xmlns="http://www.w3.org/2000/svg" role="img" preserveAspectRatio="xMidYMid meet">
  <title>Firstpass audit receipt — tamper-evident trace of a cheapest-first, gate-verified routing decision</title>
  <defs>
    <filter id="glow" x="-80%" y="-80%" width="260%" height="260%">
      <feGaussianBlur stdDeviation="3" result="blur"/>
      <feMerge>
        <feMergeNode in="blur"/>
        <feMergeNode in="SourceGraphic"/>
      </feMerge>
    </filter>
    <filter id="cardShadow" x="-20%" y="-20%" width="140%" height="140%">
      <feDropShadow dx="0" dy="3" stdDeviation="8" flood-color="#000000" flood-opacity="0.4"/>
    </filter>
    <linearGradient id="shimmerGrad" x1="0" y1="0" x2="1" y2="0">
      <stop offset="0" stop-color="#5EEACB" stop-opacity="0"/>
      <stop offset="0.5" stop-color="#5EEACB" stop-opacity="0.85"/>
      <stop offset="1" stop-color="#5EEACB" stop-opacity="0"/>
    </linearGradient>
    <clipPath id="savedClip">
      <text x="90" y="452" font-family="ui-monospace, SFMono-Regular, Menlo, monospace" font-size="19" font-weight="700">SAVED $0.0502 — 80% cheaper at proven quality</text>
    </clipPath>
  </defs>

  <!-- self-contained ink background / outer card -->
  <rect x="1.5" y="1.5" width="717" height="557" rx="16" fill="#0B0E14" stroke="#263449" stroke-width="1"/>

  <!-- receipt panel -->
  <rect x="50" y="24" width="620" height="512" rx="10" fill="#121A26" stroke="#263449" stroke-width="1.25" filter="url(#cardShadow)"/>

  <!-- perforation notches -->
  <g fill="#0B0E14">
    <g id="perfTop">
      <circle cx="70" cy="24" r="6"/><circle cx="90" cy="24" r="6"/><circle cx="110" cy="24" r="6"/><circle cx="130" cy="24" r="6"/><circle cx="150" cy="24" r="6"/><circle cx="170" cy="24" r="6"/><circle cx="190" cy="24" r="6"/><circle cx="210" cy="24" r="6"/><circle cx="230" cy="24" r="6"/><circle cx="250" cy="24" r="6"/><circle cx="270" cy="24" r="6"/><circle cx="290" cy="24" r="6"/><circle cx="310" cy="24" r="6"/><circle cx="330" cy="24" r="6"/><circle cx="350" cy="24" r="6"/><circle cx="370" cy="24" r="6"/><circle cx="390" cy="24" r="6"/><circle cx="410" cy="24" r="6"/><circle cx="430" cy="24" r="6"/><circle cx="450" cy="24" r="6"/><circle cx="470" cy="24" r="6"/><circle cx="490" cy="24" r="6"/><circle cx="510" cy="24" r="6"/><circle cx="530" cy="24" r="6"/><circle cx="550" cy="24" r="6"/><circle cx="570" cy="24" r="6"/><circle cx="590" cy="24" r="6"/><circle cx="610" cy="24" r="6"/><circle cx="630" cy="24" r="6"/><circle cx="650" cy="24" r="6"/>
    </g>
    <g id="perfBottom">
      <circle cx="70" cy="536" r="6"/><circle cx="90" cy="536" r="6"/><circle cx="110" cy="536" r="6"/><circle cx="130" cy="536" r="6"/><circle cx="150" cy="536" r="6"/><circle cx="170" cy="536" r="6"/><circle cx="190" cy="536" r="6"/><circle cx="210" cy="536" r="6"/><circle cx="230" cy="536" r="6"/><circle cx="250" cy="536" r="6"/><circle cx="270" cy="536" r="6"/><circle cx="290" cy="536" r="6"/><circle cx="310" cy="536" r="6"/><circle cx="330" cy="536" r="6"/><circle cx="350" cy="536" r="6"/><circle cx="370" cy="536" r="6"/><circle cx="390" cy="536" r="6"/><circle cx="410" cy="536" r="6"/><circle cx="430" cy="536" r="6"/><circle cx="450" cy="536" r="6"/><circle cx="470" cy="536" r="6"/><circle cx="490" cy="536" r="6"/><circle cx="510" cy="536" r="6"/><circle cx="530" cy="536" r="6"/><circle cx="550" cy="536" r="6"/><circle cx="570" cy="536" r="6"/><circle cx="590" cy="536" r="6"/><circle cx="610" cy="536" r="6"/><circle cx="630" cy="536" r="6"/><circle cx="650" cy="536" r="6"/>
    </g>
  </g>

  <!-- header -->
  <text x="90" y="62" font-family="ui-monospace, SFMono-Regular, Menlo, monospace" font-size="12" font-weight="600" letter-spacing="2" fill="#8A97A6">FIRSTPASS · AUDIT RECEIPT</text>

  <g stroke="#19E3B1" stroke-width="2" fill="none">
    <rect x="90" y="76" width="13" height="9" rx="4.5"/>
    <rect x="99" y="76" width="13" height="9" rx="4.5"/>
  </g>
  <text x="118" y="85" font-family="ui-monospace, SFMono-Regular, Menlo, monospace" font-size="12" fill="#19E3B1">prev_hash 9f2c&#8230;a1b7</text>

  <line x1="90" y1="102" x2="630" y2="102" stroke="#263449" stroke-width="1" stroke-dasharray="4 4"/>

  <!-- meta -->
  <text x="90" y="128" font-family="ui-monospace, SFMono-Regular, Menlo, monospace" font-size="13" fill="#E6EDF3">trace_id  0192f3a1-&#8230;-4e8b1f0a2c33</text>
  <text x="90" y="152" font-family="ui-monospace, SFMono-Regular, Menlo, monospace" font-size="13" fill="#8A97A6">session   agent-run-4417</text>
  <rect x="546" y="139" width="84" height="24" rx="12" fill="#F5A623" fill-opacity="0.15" stroke="#F5A623" stroke-width="1.25"/>
  <text x="588" y="155" text-anchor="middle" font-family="ui-monospace, SFMono-Regular, Menlo, monospace" font-size="11" font-weight="700" fill="#F5A623">ENFORCE</text>

  <line x1="90" y1="178" x2="630" y2="178" stroke="#263449" stroke-width="1" stroke-dasharray="4 4"/>

  <!-- attempt: rung 0, fail -->
  <text x="90" y="204" font-family="ui-monospace, SFMono-Regular, Menlo, monospace" font-size="13" fill="#E6EDF3">rung 0 · anthropic/claude-haiku-4-5</text>
  <text x="90" y="224" font-family="ui-monospace, SFMono-Regular, Menlo, monospace" font-size="12" fill="#8A97A6">gate cargo-test</text>
  <rect x="520" y="194" width="60" height="24" rx="6" fill="#FF5C5C" fill-opacity="0.15" stroke="#FF5C5C" stroke-width="1.25"/>
  <text x="550" y="210" text-anchor="middle" font-family="ui-monospace, SFMono-Regular, Menlo, monospace" font-size="11" font-weight="700" fill="#FF5C5C">FAIL</text>
  <text x="630" y="224" text-anchor="end" font-family="ui-monospace, SFMono-Regular, Menlo, monospace" font-size="13" fill="#E6EDF3">$0.0007</text>

  <!-- attempt: rung 1, pass -->
  <text x="90" y="266" font-family="ui-monospace, SFMono-Regular, Menlo, monospace" font-size="13" fill="#E6EDF3">rung 1 · anthropic/claude-sonnet-5</text>
  <text x="90" y="286" font-family="ui-monospace, SFMono-Regular, Menlo, monospace" font-size="12" fill="#8A97A6">gate cargo-test</text>
  <rect x="508" y="256" width="72" height="24" rx="6" fill="#19E3B1" fill-opacity="0.15" stroke="#19E3B1" stroke-width="1.25"/>
  <text x="544" y="272" text-anchor="middle" font-family="ui-monospace, SFMono-Regular, Menlo, monospace" font-size="11" font-weight="700" fill="#19E3B1">PASS &#10003;</text>
  <text x="630" y="286" text-anchor="end" font-family="ui-monospace, SFMono-Regular, Menlo, monospace" font-size="13" fill="#E6EDF3">$0.0121</text>

  <line x1="90" y1="308" x2="630" y2="308" stroke="#263449" stroke-width="1" stroke-dasharray="4 4"/>

  <!-- total block -->
  <rect x="70" y="326" width="580" height="150" rx="10" fill="#19E3B1" fill-opacity="0.05" stroke="#19E3B1" stroke-opacity="0.35" stroke-width="1.25"/>
  <text x="90" y="356" font-family="ui-monospace, SFMono-Regular, Menlo, monospace" font-size="13" fill="#8A97A6">total</text>
  <text x="630" y="356" text-anchor="end" font-family="ui-monospace, SFMono-Regular, Menlo, monospace" font-size="14" font-weight="700" fill="#E6EDF3">$0.0128</text>
  <text x="90" y="380" font-family="ui-monospace, SFMono-Regular, Menlo, monospace" font-size="13" fill="#8A97A6">vs baseline (always-top-tier)</text>
  <text x="630" y="380" text-anchor="end" font-family="ui-monospace, SFMono-Regular, Menlo, monospace" font-size="13" fill="#8A97A6">$0.0630</text>

  <line x1="90" y1="400" x2="630" y2="400" stroke="#263449" stroke-width="1"/>

  <text x="90" y="452" font-family="ui-monospace, SFMono-Regular, Menlo, monospace" font-size="19" font-weight="700" fill="#19E3B1">SAVED $0.0502 &#8212; 80% cheaper at proven quality</text>
  <g clip-path="url(#savedClip)">
    <rect x="-140" y="425" width="140" height="36" fill="url(#shimmerGrad)">
      <animate attributeName="x" values="-140;700" dur="4s" repeatCount="indefinite"/>
    </rect>
  </g>

  <!-- footer -->
  <text x="360" y="510" text-anchor="middle" font-family="ui-monospace, SFMono-Regular, Menlo, monospace" font-size="11" fill="#8A97A6">re-derive the chain yourself · proof over prediction</text>
</svg>
